<svg version="1" xmlns="http://www.w3.org/2000/svg" width="682.667" height="682.667" viewBox="0 0 512.000000 512.000000"><path d="M102.9 1.4C81.8 7.3 64.5 25.2 60.1 45.8c-.8 3.8-1.1 59.9-1.1 199.7 0 193 0 194.5 2 199.9 8.6 22.7 41.2 49.5 77 63.2l7.5 2.9 138.4.3c152.8.3 143.7.6 157.1-6.1 4.2-2.1 9.2-5.9 14.2-10.8 6.3-6.1 8.5-9.2 11.7-16 2.2-4.6 4.4-11.1 5-14.3.8-4.2 1.1-62 1.1-189.6 0-180.3 0-183.8-2-191.5-5.3-20.9-21.6-37.2-42.5-42.5-4.3-1.1-10.2-2-13-2h-5.2l-2-4.8c-4.7-11-15.5-22.3-27.3-28.2-12.5-6.3-5.3-6-145.6-5.9-100 .1-128.9.4-132.5 1.3zm219.9 40c-12.5 4.5-21.1 13.8-25.9 28.1-1.1 3.2-1.5 25.9-1.9 114.3l-.5 110.2-33-23.1c-18.1-12.7-33.5-23.3-34.2-23.6-.6-.2-16 9.9-34.2 22.5-18.1 12.6-33.4 23.3-34 23.7-.9.5-1.1-29.1-.8-109.2.2-100.1.4-110.2 1.9-114.6 5.4-15.2 14.7-24.3 28.8-28.3 6.8-1.9 139.1-1.9 133.8 0zm99.3 40.2c3.9 2 8.7 7.9 9.9 12.3.7 2.7.9 60.2.8 183.7l-.3 179.9-2.3 4.2c-1.2 2.4-4.1 5.5-6.4 7l-4.2 2.8H152.5l-8.5-4.2c-4.7-2.3-11.9-6.3-16-9l-7.5-4.8 124-.5 124-.5 7-2.9c19.1-7.9 31.6-22 36.5-41.2 2-7.5 2-11.7 2-168.6V79l2.8.6c1.5.4 3.9 1.3 5.3 2z"/></svg>